  <svg
    viewBox="0 0 80 80"
    fill="none"
    xmlns="http://www.w3.org/2000/svg"
  >
    <path
      d="M37.6386 6.5027V0H40.1558C40.9186 0 41.5136 0.183175 41.9407 0.549524C42.3679 0.915874 42.5815 1.42266 42.5815 2.06987C42.5815 2.50339 42.4839 2.8789 42.2886 3.1964C42.0933 3.5078 41.8156 3.74592 41.4556 3.91078C41.0956 4.07564 40.6623 4.15807 40.1558 4.15807H38.8285V6.5027H37.6386ZM38.8285 3.12313H40.1009C40.5036 3.12313 40.8118 3.03459 41.0254 2.85753C41.2451 2.68046 41.3549 2.41791 41.3549 2.06987C41.3549 1.72795 41.2451 1.4715 41.0254 1.30054C40.8118 1.12347 40.5036 1.03494 40.1009 1.03494H38.8285V3.12313Z"
      fill="#ffffff"
    />
    <path
      d="M46.132 7.20799C45.5029 7.08666 44.986 6.85019 44.5814 6.49856C44.178 6.14095 43.9013 5.68964 43.7515 5.14464C43.6077 4.60079 43.6022 3.98412 43.735 3.29464C43.8678 2.60516 44.102 2.03472 44.4375 1.58332C44.7802 1.12707 45.2052 0.807963 45.7126 0.625987C46.22 0.444011 46.7882 0.413689 47.4174 0.53502C48.0586 0.658662 48.5779 0.898714 48.9753 1.25518C49.3787 1.61279 49.6518 2.06652 49.7945 2.61636C49.9443 3.16137 49.9528 3.77861 49.82 4.46809C49.6872 5.15757 49.45 5.72743 49.1085 6.17768C48.7729 6.62909 48.3515 6.94578 47.8441 7.12775C47.3439 7.30489 46.7732 7.33164 46.132 7.20799ZM46.3278 6.19176C46.7173 6.26687 47.0642 6.24049 47.3684 6.11263C47.6799 5.97992 47.9404 5.75656 48.1501 5.44255C48.3668 5.1237 48.522 4.72146 48.6156 4.23583C48.7091 3.75019 48.7145 3.31906 48.6316 2.94244C48.5548 2.56696 48.3965 2.25972 48.1567 2.02071C47.9228 1.78285 47.6111 1.62636 47.2217 1.55125C46.8442 1.47846 46.4997 1.50841 46.1882 1.64111C45.8768 1.77382 45.6127 1.9996 45.3959 2.31845C45.1851 2.63845 45.0329 3.04127 44.9394 3.52691C44.8459 4.01254 44.8375 4.44309 44.9143 4.81856C44.9983 5.1892 45.1602 5.49402 45.4 5.73303C45.641 5.96605 45.9503 6.11896 46.3278 6.19176Z"
      fill="#ffffff"
    />
    <path
      d="M50.1716 7.97213L50.9725 1.28848L52.1367 1.75482L51.4383 6.70376L54.3546 2.64326L55.3829 3.05514L54.693 8.00747L57.5923 3.94016L58.765 4.40991L54.735 9.80006L53.5113 9.30989L54.1109 4.7555L51.4038 8.46571L50.1716 7.97213Z"
      fill="#ffffff"
    />
    <path
      d="M56.3565 10.6673L59.8702 5.19692L63.551 7.56379L62.9918 8.43443L60.312 6.71128L59.3965 8.13667L61.9838 9.8004L61.4296 10.6633L58.8422 8.99961L57.9168 10.4404L60.6581 12.2032L60.0989 13.0738L56.3565 10.6673Z"
      fill="#ffffff"
    />
    <path
      d="M61.194 13.8895L65.6788 9.18326L67.6464 11.0604C67.9864 11.3848 68.2254 11.7225 68.3632 12.0733C68.501 12.4242 68.5374 12.7709 68.4721 13.1137C68.4069 13.4564 68.2374 13.7714 67.9637 14.0586C67.7574 14.2752 67.5278 14.4231 67.275 14.5026C67.0223 14.582 66.768 14.5967 66.5121 14.5467C66.2607 14.5008 66.0295 14.3984 65.8185 14.2393L65.8486 14.1414C66.1533 14.4321 66.3221 14.7239 66.355 15.0168C66.3923 15.3139 66.2872 15.6144 66.0397 15.9183L64.8641 17.3909L63.9896 16.5566L65.0651 15.2289C65.2288 15.0307 65.2997 14.8368 65.2779 14.6473C65.2561 14.4578 65.1216 14.2451 64.8743 14.0091L63.748 12.9347L62.0552 14.7111L61.194 13.8895ZM64.4681 12.179L65.5215 13.184C65.7821 13.4325 66.0442 13.5645 66.3078 13.5798C66.5715 13.5951 66.8107 13.4901 67.0255 13.2647C67.2444 13.0349 67.3378 12.7866 67.3056 12.5196C67.2777 12.2568 67.1225 11.9906 66.8398 11.7209L65.8262 10.7539L64.4681 12.179Z"
      fill="#ffffff"
    />
    <path
      d="M66.0804 18.8306L71.3743 15.0587L73.9123 18.6248L73.0697 19.2251L71.222 16.6289L69.8426 17.6117L71.6266 20.1184L70.7915 20.7134L69.0075 18.2067L67.6132 19.2002L69.5034 21.8561L68.6608 22.4564L66.0804 18.8306Z"
      fill="#ffffff"
    />
    <path
      d="M69.3744 23.6208L75.2861 20.9195L76.1835 22.8856C76.6145 23.8298 76.6872 24.6725 76.4016 25.4139C76.1242 26.1582 75.5108 26.7472 74.5616 27.1809C73.618 27.6121 72.7767 27.6945 72.0379 27.428C71.2991 27.1615 70.718 26.5644 70.2946 25.6369L69.3744 23.6208ZM70.8096 24.2739L71.2127 25.157C71.4941 25.7735 71.8697 26.1556 72.3397 26.3033C72.8096 26.4511 73.3804 26.3715 74.0521 26.0646C74.7349 25.7526 75.1743 25.3705 75.3705 24.9184C75.5667 24.4663 75.524 23.932 75.2427 23.3155L74.8396 22.4324L70.8096 24.2739Z"
      fill="#ffffff"
    />
    <path
      d="M73.3276 35.1391L79.9308 37.1717L80 38.6263L73.6198 41.2777L73.5606 40.0335L75.071 39.4206L74.9486 36.8499L73.3868 36.3833L73.3276 35.1391ZM75.98 37.1491L76.0693 39.0245L78.7678 37.9607L75.98 37.1491Z"
      fill="#ffffff"
    />
    <path
      d="M73.5642 42.0807L79.9971 43.0061L79.7991 44.3841L74.5622 46.4621L79.4005 47.1581L79.2311 48.3366L72.7983 47.4112L73.0015 45.997L78.0972 43.9357L73.3949 43.2592L73.5642 42.0807Z"
      fill="#ffffff"
    />
    <path
      d="M72.5629 48.3885L78.7045 50.5153L77.9979 52.5579C77.6586 53.5388 77.13 54.1989 76.4121 54.5383C75.6979 54.8854 74.8478 54.8882 73.8617 54.5467C72.8813 54.2072 72.2157 53.686 71.8648 52.9829C71.5139 52.2799 71.5051 51.4466 71.8384 50.483L72.5629 48.3885ZM73.1512 49.8521L72.8338 50.7696C72.6123 51.41 72.6206 51.946 72.8588 52.3774C73.0971 52.8088 73.5651 53.1453 74.2628 53.3869C74.9722 53.6326 75.5537 53.6595 76.0075 53.4677C76.4613 53.276 76.7989 52.8599 77.0205 52.2194L77.3378 51.302L73.1512 49.8521Z"
      fill="#ffffff"
    />
    <path
      d="M65.2098 61.8519C65.5615 61.4458 65.9367 61.1571 66.3354 60.9857C66.7342 60.8143 67.1343 60.7532 67.5358 60.8024C67.9379 60.8602 68.3216 61.0232 68.6869 61.2914L67.951 62.253C67.7148 62.0968 67.483 62.0008 67.2555 61.9652C67.024 61.9341 66.8011 61.9631 66.5869 62.052C66.3732 62.1495 66.1685 62.3113 65.9727 62.5374C65.8048 62.7312 65.686 62.9151 65.6162 63.0889C65.5471 63.2713 65.5287 63.4371 65.5609 63.5863C65.5939 63.7441 65.6795 63.8829 65.8178 64.0029C65.9424 64.1108 66.079 64.1768 66.2278 64.2008C66.3812 64.2288 66.5711 64.1914 66.7973 64.0886C67.0282 63.9899 67.3287 63.806 67.6988 63.5372C68.1427 63.2111 68.5282 62.9757 68.8553 62.8311C69.187 62.6905 69.4885 62.6408 69.7596 62.682C70.0354 62.7272 70.307 62.8657 70.5745 63.0976C70.8605 63.3455 71.0499 63.635 71.1427 63.966C71.2402 64.3009 71.235 64.6519 71.1272 65.0189C71.0239 65.3899 70.8124 65.7599 70.4927 66.1291C70.153 66.5213 69.7938 66.7916 69.4151 66.9399C69.0409 67.0922 68.6637 67.1408 68.2834 67.0858C67.9031 67.0308 67.5379 66.8838 67.1877 66.6448L67.9314 65.7021C68.1313 65.8349 68.3361 65.9155 68.5457 65.9438C68.7514 65.9767 68.9551 65.9513 69.1567 65.8676C69.359 65.7925 69.5501 65.6512 69.7299 65.4435C69.9537 65.1851 70.0716 64.9278 70.0835 64.6715C70.0961 64.4239 70.0056 64.2161 69.8119 64.0482C69.6781 63.9322 69.5415 63.8663 69.4019 63.8503C69.2583 63.8389 69.0843 63.886 68.8799 63.9915C68.6801 64.1011 68.4197 64.2712 68.0987 64.5019C67.6269 64.8603 67.2075 65.1068 66.8408 65.2412C66.474 65.3757 66.1482 65.4163 65.8632 65.3631C65.5782 65.3099 65.3135 65.1774 65.069 64.9655C64.7693 64.7056 64.5746 64.4035 64.4851 64.0593C64.4002 63.7191 64.4177 63.3586 64.5376 62.9778C64.6621 62.6009 64.8862 62.2256 65.2098 61.8519Z"
      fill="#ffffff"
    />
    <path
      d="M62.4141 64.9953L66.4315 70.1067L62.9922 72.813L62.3528 71.9994L64.8568 70.0292L63.81 68.6973L61.3924 70.5996L60.7586 69.7933L63.1762 67.891L62.1181 66.5448L59.5566 68.5603L58.9172 67.7468L62.4141 64.9953Z"
      fill="#ffffff"
    />
    <path
      d="M55.346 69.6106C55.8721 69.3392 56.3974 69.2194 56.9218 69.2511C57.449 69.2883 57.9411 69.4706 58.3982 69.7982C58.8581 70.1311 59.2503 70.6123 59.5746 71.2419C59.8934 71.8606 60.0576 72.4525 60.0674 73.0176C60.0799 73.5882 59.9483 74.0991 59.6728 74.5504C59.4 75.0071 58.9925 75.3753 58.4501 75.6551C57.7124 76.0356 57.0451 76.1463 56.4481 75.9871C55.854 75.8333 55.3254 75.4602 54.8623 74.8679L55.9394 74.2402C56.2057 74.5837 56.5113 74.8038 56.8564 74.9006C57.2015 74.9974 57.5747 74.9423 57.9761 74.7352C58.3015 74.5674 58.5388 74.335 58.688 74.0383C58.8372 73.7415 58.8958 73.4021 58.8638 73.0202C58.8318 72.6383 58.7053 72.233 58.4844 71.8042C58.2607 71.3701 58.0027 71.0292 57.7103 70.7816C57.4153 70.5422 57.1052 70.3999 56.7798 70.3548C56.4545 70.3096 56.1345 70.3682 55.8199 70.5305C55.3914 70.7515 55.1207 71.0388 55.0077 71.3925C54.8921 71.7544 54.908 72.1584 55.0554 72.6044L53.9195 73.1182C53.7634 72.6286 53.7085 72.1623 53.7549 71.7193C53.8041 71.2818 53.9615 70.8811 54.2272 70.5174C54.4903 70.1619 54.8632 69.8596 55.346 69.6106Z"
      fill="#ffffff"
    />
    <path
      d="M49.6688 71.9119C50.1723 71.764 50.6427 71.7308 51.0801 71.8123C51.5115 71.8955 51.8813 72.0828 52.1894 72.3741C52.4934 72.673 52.7167 73.0655 52.8594 73.5518L54.0379 77.5678L52.8961 77.9032L51.7176 73.8872C51.5887 73.4478 51.3718 73.1425 51.0671 72.9711C50.7625 72.7997 50.3935 72.7776 49.9602 72.9049C49.5269 73.0322 49.2284 73.2504 49.0647 73.5594C48.8951 73.8701 48.8748 74.2452 49.0037 74.6845L50.1823 78.7005L49.0405 79.036L47.862 75.02C47.7193 74.5337 47.6979 74.0818 47.798 73.6642C47.8998 73.2525 48.1097 72.895 48.4277 72.5915C48.7398 72.2898 49.1535 72.0633 49.6688 71.9119Z"
      fill="#ffffff"
    />
    <path
      d="M45.9222 73.0675L46.5399 79.5407L43.8336 79.7993C43.3659 79.844 42.9544 79.8036 42.5991 79.678C42.2438 79.5525 41.9581 79.3529 41.742 79.0791C41.5258 78.8053 41.3989 78.4709 41.3612 78.0758C41.3328 77.778 41.3713 77.5075 41.4768 77.2644C41.5824 77.0212 41.7378 76.8193 41.9431 76.6586C42.1424 76.4985 42.3712 76.3907 42.6295 76.3354L42.6838 76.4222C42.2646 76.4623 41.9337 76.3988 41.6909 76.2319C41.4421 76.0655 41.284 75.7893 41.2165 75.4032L40.8741 73.5498L42.0769 73.4349L42.3754 75.1176C42.418 75.3712 42.518 75.5518 42.6754 75.6594C42.8328 75.767 43.0815 75.8046 43.4217 75.7721L44.9708 75.6241L44.7376 73.1807L45.9222 73.0675ZM45.07 76.6635L43.6212 76.8019C43.2627 76.8361 42.9914 76.9479 42.8072 77.1373C42.623 77.3266 42.5457 77.5763 42.5752 77.8862C42.6054 78.2023 42.7319 78.4356 42.9547 78.586C43.1714 78.7371 43.4741 78.794 43.8629 78.7569L45.257 78.6237L45.07 76.6635Z"
      fill="#ffffff"
    />
    <path
      d="M38.9902 73.5267L38.3725 80L34.0169 79.5839L34.1152 78.5536L37.2862 78.8566L37.4472 77.1699L34.3855 76.8774L34.483 75.8562L37.5446 76.1488L37.7074 74.4438L34.4634 74.1339L34.5618 73.1036L38.9902 73.5267Z"
      fill="#ffffff"
    />
    <path
      d="M33.2149 72.8808L31.3839 79.1201L29.3112 78.5111C28.3158 78.2187 27.6316 77.7218 27.2587 77.0204C26.8782 76.3232 26.8349 75.4736 27.1289 74.4718C27.4212 73.4759 27.9099 72.7858 28.595 72.4017C29.2802 72.0175 30.1116 71.9691 31.0894 72.2563L33.2149 72.8808ZM31.7817 73.5383L30.8507 73.2648C30.2008 73.0739 29.6662 73.1077 29.2468 73.3664C28.8275 73.625 28.5138 74.1087 28.3058 74.8176C28.0943 75.5382 28.0951 76.1207 28.3081 76.5651C28.5212 77.0095 28.9527 77.3272 29.6026 77.5181L30.5336 77.7916L31.7817 73.5383Z"
      fill="#ffffff"
    />
    <path
      d="M21.487 67.9818L17.4695 73.0932L15.5556 71.5872C14.932 71.0966 14.5463 70.6144 14.3984 70.1408C14.2458 69.6633 14.3581 69.1846 14.7353 68.7047C14.905 68.4887 15.0996 68.335 15.319 68.2435C15.5298 68.1531 15.7574 68.1302 16.0018 68.1749C16.2413 68.2158 16.4848 68.3258 16.7322 68.5049L16.7281 68.525C16.3029 68.1671 16.0614 67.7829 16.0037 67.3724C15.9421 66.9667 16.0566 66.579 16.3471 66.2095C16.7168 65.7391 17.1571 65.5147 17.6681 65.5362C18.1706 65.5587 18.7192 65.8039 19.314 66.272L21.487 67.9818ZM19.9292 68.0377L18.7348 67.0979C18.4422 66.8676 18.1648 66.7464 17.9026 66.7343C17.6356 66.7184 17.4097 66.8281 17.2248 67.0633C17.04 67.2984 16.9825 67.5445 17.0523 67.8014C17.1221 68.0582 17.3057 68.3037 17.6031 68.5377L18.7975 69.4775L19.9292 68.0377ZM18.2203 70.2118L17.2706 69.4645C16.9636 69.223 16.6785 69.0918 16.4153 69.0711C16.152 69.0505 15.9337 69.1505 15.7601 69.3713C15.5791 69.6017 15.5291 69.8381 15.6102 70.0806C15.6914 70.3231 15.8902 70.5689 16.2068 70.818L17.1566 71.5653L18.2203 70.2118Z"
      fill="#ffffff"
    />
    <path
      d="M15.1882 62.4133L13.2512 64.0927L11.7631 68.3883L10.888 67.3777L11.9701 64.4036L8.87987 65.0589L8.0047 64.0484L12.4659 63.1859L14.4029 61.5066L15.1882 62.4133Z"
      fill="#ffffff"
    />
    <path
      d="M9.30896 53.495L3.16737 55.6218L2.37101 53.3196C2.11154 52.5695 2.04758 51.9552 2.17913 51.4768C2.30868 50.9925 2.66179 50.6506 3.23846 50.4509C3.49797 50.361 3.74471 50.3369 3.97871 50.3787C4.20494 50.4166 4.40876 50.5205 4.59018 50.6903C4.76961 50.8543 4.91498 51.0785 5.02631 51.363L5.012 51.3777C4.84768 50.8466 4.85213 50.3928 5.02537 50.0162C5.19284 49.6416 5.4986 49.3774 5.94264 49.2237C6.50778 49.0279 6.9995 49.0773 7.41779 49.3719C7.82832 49.6626 8.15733 50.1657 8.40482 50.8812L9.30896 53.495ZM7.96825 52.6993L7.47127 51.2626C7.34952 50.9106 7.18163 50.6586 6.96761 50.5066C6.75158 50.3488 6.50229 50.3189 6.21972 50.4167C5.93715 50.5146 5.75582 50.6904 5.67574 50.9443C5.59566 51.1982 5.6175 51.504 5.74124 51.8617L6.23822 53.2985L7.96825 52.6993ZM5.35591 53.604L4.96072 52.4615C4.83298 52.0923 4.66399 51.8277 4.45373 51.6679C4.24348 51.5081 4.00572 51.4742 3.74045 51.566C3.46364 51.6619 3.29385 51.8338 3.23107 52.0816C3.16829 52.3295 3.20277 52.6439 3.3345 53.0247L3.72968 54.1672L5.35591 53.604Z"
      fill="#ffffff"
    />
    <path
      d="M7.02504 45.4462L0.59216 46.3717L0.422811 45.1931L6.85569 44.2677L7.02504 45.4462Z"
      fill="#ffffff"
    />
    <path
      d="M6.58575 39.1782L1.12726 38.918L1.03318 40.894L0 40.8448L0.244344 35.7126L1.27753 35.7618L1.18388 37.7287L6.64237 37.9889L6.58575 39.1782Z"
      fill="#ffffff"
    />
    <path
      d="M7.34393 32.8556L2.0333 31.5665L1.56716 33.489L0.561964 33.245L1.77262 28.2518L2.77782 28.4958L2.31384 30.4094L7.62448 31.6985L7.34393 32.8556Z"
      fill="#ffffff"
    />
    <path
      d="M8.72539 28.0154L2.81366 25.3141L4.63126 21.3319L5.57214 21.7618L4.24887 24.661L5.78925 25.3649L7.06689 22.5656L7.99945 22.9918L6.7218 25.791L8.27884 26.5025L9.63253 23.5366L10.5734 23.9665L8.72539 28.0154Z"
      fill="#ffffff"
    />
    <path
      d="M11.2245 22.766L5.93053 18.9941L6.73759 17.8601L12.344 18.4141L8.36233 15.5772L9.05257 14.6073L14.3465 18.3793L13.5182 19.5431L8.04493 19.0389L11.9147 21.7962L11.2245 22.766Z"
      fill="#ffffff"
    />
    <path
      d="M17.0867 15.8331C16.6981 16.2039 16.2971 16.4556 15.8839 16.5883C15.4707 16.721 15.0666 16.7437 14.6716 16.6566C14.2768 16.5608 13.9103 16.362 13.5722 16.0603L14.3961 15.173C14.6163 15.351 14.838 15.4686 15.0611 15.5257C15.2886 15.5786 15.5132 15.571 15.7349 15.5029C15.9569 15.4261 16.1761 15.2845 16.3925 15.0781C16.578 14.9011 16.7137 14.7294 16.7997 14.563C16.8859 14.388 16.92 14.2247 16.902 14.0731C16.8842 13.9129 16.8122 13.7665 16.6858 13.634C16.5721 13.5146 16.4423 13.436 16.2965 13.398C16.1464 13.3555 15.9539 13.3747 15.7189 13.4555C15.4797 13.5318 15.1631 13.6862 14.7691 13.9187C14.2962 14.2011 13.8901 14.3987 13.5508 14.5116C13.2072 14.62 12.9024 14.6408 12.6364 14.574C12.3662 14.5028 12.1089 14.339 11.8647 14.0827C11.6036 13.8087 11.4425 13.5026 11.3815 13.1643C11.3163 12.8216 11.3548 12.4727 11.4971 12.1176C11.6351 11.7581 11.8808 11.4098 12.2341 11.0728C12.6095 10.7146 12.9928 10.4797 13.3839 10.3681C13.7708 10.2521 14.1509 10.2396 14.5243 10.3305C14.8976 10.4214 15.2473 10.6025 15.5732 10.8737L14.7432 11.7414C14.5569 11.5902 14.3607 11.4905 14.1547 11.4424C13.9531 11.3901 13.7479 11.396 13.5392 11.4601C13.3307 11.5156 13.1271 11.6382 12.9283 11.8278C12.681 12.0637 12.5392 12.3087 12.503 12.5626C12.4669 12.8079 12.5373 13.0234 12.7142 13.209C12.8363 13.3371 12.9661 13.4158 13.1035 13.445C13.2454 13.47 13.423 13.4396 13.6366 13.354C13.8459 13.264 14.1213 13.1194 14.4627 12.9202C14.9665 12.6083 15.4073 12.4029 15.7852 12.3039C16.163 12.205 16.4913 12.1955 16.7699 12.2756C17.0486 12.3556 17.2995 12.5128 17.5227 12.747C17.7964 13.0342 17.9615 13.3534 18.0179 13.7046C18.07 14.0513 18.0184 14.4085 17.8629 14.7762C17.7032 15.1395 17.4444 15.4918 17.0867 15.8331Z"
      fill="#ffffff"
    />
    <path
      d="M21.8436 12.0669C21.3045 12.4135 20.7674 12.5993 20.232 12.6241C19.6934 12.6439 19.182 12.5082 18.6976 12.2173C18.2185 11.923 17.7892 11.4805 17.4098 10.8898C17.0304 10.2991 16.8064 9.72453 16.7379 9.16615C16.6713 8.59934 16.7588 8.07492 17.0005 7.59289C17.2422 7.11087 17.6325 6.69655 18.1716 6.34994C18.7209 5.99672 19.2623 5.8119 19.7957 5.79546C20.3344 5.77573 20.8449 5.91557 21.3274 6.215C21.8117 6.50599 22.2436 6.94684 22.623 7.53754C23.0024 8.12824 23.2238 8.70443 23.2871 9.26611C23.3556 9.82448 23.269 10.3447 23.0273 10.8267C22.7875 11.3003 22.3929 11.7137 21.8436 12.0669ZM21.2844 11.1963C21.618 10.9817 21.8509 10.7231 21.983 10.4204C22.1168 10.1094 22.1513 9.76782 22.0865 9.39581C22.0235 9.01536 21.8584 8.61711 21.5911 8.20105C21.3239 7.78499 21.0304 7.46926 20.7107 7.25387C20.3962 7.03518 20.0697 6.92214 19.7312 6.91475C19.398 6.90407 19.0645 7.00601 18.7308 7.22058C18.4074 7.42855 18.1787 7.68807 18.0448 7.99915C17.911 8.31024 17.8755 8.656 17.9386 9.03645C18.0067 9.41359 18.1744 9.81019 18.4416 10.2263C18.7089 10.6423 18.9998 10.9597 19.3143 11.1784C19.6307 11.3886 19.9581 11.4975 20.2965 11.5048C20.6317 11.5071 20.9609 11.4042 21.2844 11.1963Z"
      fill="#ffffff"
    />
    <path
      d="M25.1073 9.90564L22.6918 3.86874L25.2157 2.85776C25.6519 2.68302 26.0581 2.60581 26.4344 2.6261C26.8106 2.6464 27.1409 2.75742 27.4254 2.95916C27.7099 3.1609 27.9259 3.44599 28.0733 3.81444C28.1844 4.09219 28.2236 4.3626 28.1908 4.62565C28.158 4.88871 28.0657 5.12627 27.914 5.33834C27.7678 5.54814 27.5786 5.716 27.3464 5.84193L27.2699 5.77392C27.6608 5.61734 27.9962 5.58493 28.2761 5.67668C28.5617 5.76617 28.7912 5.98663 28.9647 6.33807L29.8151 8.01985L28.6934 8.46917L27.9331 6.93873C27.8209 6.70746 27.6741 6.56238 27.4928 6.50347C27.3114 6.44456 27.0621 6.47865 26.7449 6.60573L25.3002 7.18441L26.212 9.46312L25.1073 9.90564ZM24.9124 6.2151L26.2636 5.67387C26.5978 5.53998 26.8267 5.35624 26.9501 5.12263C27.0736 4.88903 27.0775 4.62768 26.9618 4.33859C26.8439 4.04383 26.6568 3.85567 26.4007 3.77411C26.1502 3.69028 25.8437 3.72098 25.4811 3.86622L24.181 4.38702L24.9124 6.2151Z"
      fill="#ffffff"
    />
    <path
      d="M32.9461 7.25694L32.7036 5.99789L34.0158 5.74482L34.2584 7.00387L32.9461 7.25694Z"
      fill="#ffffff"
    />
  </svg>