<svg xmlns="http://www.w3.org/2000/svg" viewBox="0 0 260 20" width="260" height="20">
  <defs>
    <style>
      .minor { stroke: #f4f7fd; stroke-width: 0.5; }
      .major { stroke: #eaeff9; stroke-width: 0.5; }
    </style>
  </defs>
  <line class="minor" x1="1" y1="0" x2="1" y2="20" /><line class="minor" x1="2" y1="0" x2="2" y2="20" /><line class="minor" x1="3" y1="0" x2="3" y2="20" /><line class="minor" x1="4" y1="0" x2="4" y2="20" /><line class="minor" x1="5" y1="0" x2="5" y2="20" /><line class="minor" x1="6" y1="0" x2="6" y2="20" /><line class="minor" x1="7" y1="0" x2="7" y2="20" /><line class="minor" x1="8" y1="0" x2="8" y2="20" /><line class="minor" x1="9" y1="0" x2="9" y2="20" /><line class="minor" x1="11" y1="0" x2="11" y2="20" /><line class="minor" x1="12" y1="0" x2="12" y2="20" /><line class="minor" x1="13" y1="0" x2="13" y2="20" /><line class="minor" x1="14" y1="0" x2="14" y2="20" /><line class="minor" x1="15" y1="0" x2="15" y2="20" /><line class="minor" x1="16" y1="0" x2="16" y2="20" /><line class="minor" x1="17" y1="0" x2="17" y2="20" /><line class="minor" x1="18" y1="0" x2="18" y2="20" /><line class="minor" x1="19" y1="0" x2="19" y2="20" /><line class="minor" x1="21" y1="0" x2="21" y2="20" /><line class="minor" x1="22" y1="0" x2="22" y2="20" /><line class="minor" x1="23" y1="0" x2="23" y2="20" /><line class="minor" x1="24" y1="0" x2="24" y2="20" /><line class="minor" x1="25" y1="0" x2="25" y2="20" /><line class="minor" x1="26" y1="0" x2="26" y2="20" /><line class="minor" x1="27" y1="0" x2="27" y2="20" /><line class="minor" x1="28" y1="0" x2="28" y2="20" /><line class="minor" x1="29" y1="0" x2="29" y2="20" /><line class="minor" x1="31" y1="0" x2="31" y2="20" /><line class="minor" x1="32" y1="0" x2="32" y2="20" /><line class="minor" x1="33" y1="0" x2="33" y2="20" /><line class="minor" x1="34" y1="0" x2="34" y2="20" /><line class="minor" x1="35" y1="0" x2="35" y2="20" /><line class="minor" x1="36" y1="0" x2="36" y2="20" /><line class="minor" x1="37" y1="0" x2="37" y2="20" /><line class="minor" x1="38" y1="0" x2="38" y2="20" /><line class="minor" x1="39" y1="0" x2="39" y2="20" /><line class="minor" x1="41" y1="0" x2="41" y2="20" /><line class="minor" x1="42" y1="0" x2="42" y2="20" /><line class="minor" x1="43" y1="0" x2="43" y2="20" /><line class="minor" x1="44" y1="0" x2="44" y2="20" /><line class="minor" x1="45" y1="0" x2="45" y2="20" /><line class="minor" x1="46" y1="0" x2="46" y2="20" /><line class="minor" x1="47" y1="0" x2="47" y2="20" /><line class="minor" x1="48" y1="0" x2="48" y2="20" /><line class="minor" x1="49" y1="0" x2="49" y2="20" /><line class="minor" x1="51" y1="0" x2="51" y2="20" /><line class="minor" x1="52" y1="0" x2="52" y2="20" /><line class="minor" x1="53" y1="0" x2="53" y2="20" /><line class="minor" x1="54" y1="0" x2="54" y2="20" /><line class="minor" x1="55" y1="0" x2="55" y2="20" /><line class="minor" x1="56" y1="0" x2="56" y2="20" /><line class="minor" x1="57" y1="0" x2="57" y2="20" /><line class="minor" x1="58" y1="0" x2="58" y2="20" /><line class="minor" x1="59" y1="0" x2="59" y2="20" /><line class="minor" x1="61" y1="0" x2="61" y2="20" /><line class="minor" x1="62" y1="0" x2="62" y2="20" /><line class="minor" x1="63" y1="0" x2="63" y2="20" /><line class="minor" x1="64" y1="0" x2="64" y2="20" /><line class="minor" x1="65" y1="0" x2="65" y2="20" /><line class="minor" x1="66" y1="0" x2="66" y2="20" /><line class="minor" x1="67" y1="0" x2="67" y2="20" /><line class="minor" x1="68" y1="0" x2="68" y2="20" /><line class="minor" x1="69" y1="0" x2="69" y2="20" /><line class="minor" x1="71" y1="0" x2="71" y2="20" /><line class="minor" x1="72" y1="0" x2="72" y2="20" /><line class="minor" x1="73" y1="0" x2="73" y2="20" /><line class="minor" x1="74" y1="0" x2="74" y2="20" /><line class="minor" x1="75" y1="0" x2="75" y2="20" /><line class="minor" x1="76" y1="0" x2="76" y2="20" /><line class="minor" x1="77" y1="0" x2="77" y2="20" /><line class="minor" x1="78" y1="0" x2="78" y2="20" /><line class="minor" x1="79" y1="0" x2="79" y2="20" /><line class="minor" x1="81" y1="0" x2="81" y2="20" /><line class="minor" x1="82" y1="0" x2="82" y2="20" /><line class="minor" x1="83" y1="0" x2="83" y2="20" /><line class="minor" x1="84" y1="0" x2="84" y2="20" /><line class="minor" x1="85" y1="0" x2="85" y2="20" /><line class="minor" x1="86" y1="0" x2="86" y2="20" /><line class="minor" x1="87" y1="0" x2="87" y2="20" /><line class="minor" x1="88" y1="0" x2="88" y2="20" /><line class="minor" x1="89" y1="0" x2="89" y2="20" /><line class="minor" x1="91" y1="0" x2="91" y2="20" /><line class="minor" x1="92" y1="0" x2="92" y2="20" /><line class="minor" x1="93" y1="0" x2="93" y2="20" /><line class="minor" x1="94" y1="0" x2="94" y2="20" /><line class="minor" x1="95" y1="0" x2="95" y2="20" /><line class="minor" x1="96" y1="0" x2="96" y2="20" /><line class="minor" x1="97" y1="0" x2="97" y2="20" /><line class="minor" x1="98" y1="0" x2="98" y2="20" /><line class="minor" x1="99" y1="0" x2="99" y2="20" /><line class="minor" x1="101" y1="0" x2="101" y2="20" /><line class="minor" x1="102" y1="0" x2="102" y2="20" /><line class="minor" x1="103" y1="0" x2="103" y2="20" /><line class="minor" x1="104" y1="0" x2="104" y2="20" /><line class="minor" x1="105" y1="0" x2="105" y2="20" /><line class="minor" x1="106" y1="0" x2="106" y2="20" /><line class="minor" x1="107" y1="0" x2="107" y2="20" /><line class="minor" x1="108" y1="0" x2="108" y2="20" /><line class="minor" x1="109" y1="0" x2="109" y2="20" /><line class="minor" x1="111" y1="0" x2="111" y2="20" /><line class="minor" x1="112" y1="0" x2="112" y2="20" /><line class="minor" x1="113" y1="0" x2="113" y2="20" /><line class="minor" x1="114" y1="0" x2="114" y2="20" /><line class="minor" x1="115" y1="0" x2="115" y2="20" /><line class="minor" x1="116" y1="0" x2="116" y2="20" /><line class="minor" x1="117" y1="0" x2="117" y2="20" /><line class="minor" x1="118" y1="0" x2="118" y2="20" /><line class="minor" x1="119" y1="0" x2="119" y2="20" /><line class="minor" x1="121" y1="0" x2="121" y2="20" /><line class="minor" x1="122" y1="0" x2="122" y2="20" /><line class="minor" x1="123" y1="0" x2="123" y2="20" /><line class="minor" x1="124" y1="0" x2="124" y2="20" /><line class="minor" x1="125" y1="0" x2="125" y2="20" /><line class="minor" x1="126" y1="0" x2="126" y2="20" /><line class="minor" x1="127" y1="0" x2="127" y2="20" /><line class="minor" x1="128" y1="0" x2="128" y2="20" /><line class="minor" x1="129" y1="0" x2="129" y2="20" /><line class="minor" x1="131" y1="0" x2="131" y2="20" /><line class="minor" x1="132" y1="0" x2="132" y2="20" /><line class="minor" x1="133" y1="0" x2="133" y2="20" /><line class="minor" x1="134" y1="0" x2="134" y2="20" /><line class="minor" x1="135" y1="0" x2="135" y2="20" /><line class="minor" x1="136" y1="0" x2="136" y2="20" /><line class="minor" x1="137" y1="0" x2="137" y2="20" /><line class="minor" x1="138" y1="0" x2="138" y2="20" /><line class="minor" x1="139" y1="0" x2="139" y2="20" /><line class="minor" x1="141" y1="0" x2="141" y2="20" /><line class="minor" x1="142" y1="0" x2="142" y2="20" /><line class="minor" x1="143" y1="0" x2="143" y2="20" /><line class="minor" x1="144" y1="0" x2="144" y2="20" /><line class="minor" x1="145" y1="0" x2="145" y2="20" /><line class="minor" x1="146" y1="0" x2="146" y2="20" /><line class="minor" x1="147" y1="0" x2="147" y2="20" /><line class="minor" x1="148" y1="0" x2="148" y2="20" /><line class="minor" x1="149" y1="0" x2="149" y2="20" /><line class="minor" x1="151" y1="0" x2="151" y2="20" /><line class="minor" x1="152" y1="0" x2="152" y2="20" /><line class="minor" x1="153" y1="0" x2="153" y2="20" /><line class="minor" x1="154" y1="0" x2="154" y2="20" /><line class="minor" x1="155" y1="0" x2="155" y2="20" /><line class="minor" x1="156" y1="0" x2="156" y2="20" /><line class="minor" x1="157" y1="0" x2="157" y2="20" /><line class="minor" x1="158" y1="0" x2="158" y2="20" /><line class="minor" x1="159" y1="0" x2="159" y2="20" /><line class="minor" x1="161" y1="0" x2="161" y2="20" /><line class="minor" x1="162" y1="0" x2="162" y2="20" /><line class="minor" x1="163" y1="0" x2="163" y2="20" /><line class="minor" x1="164" y1="0" x2="164" y2="20" /><line class="minor" x1="165" y1="0" x2="165" y2="20" /><line class="minor" x1="166" y1="0" x2="166" y2="20" /><line class="minor" x1="167" y1="0" x2="167" y2="20" /><line class="minor" x1="168" y1="0" x2="168" y2="20" /><line class="minor" x1="169" y1="0" x2="169" y2="20" /><line class="minor" x1="171" y1="0" x2="171" y2="20" /><line class="minor" x1="172" y1="0" x2="172" y2="20" /><line class="minor" x1="173" y1="0" x2="173" y2="20" /><line class="minor" x1="174" y1="0" x2="174" y2="20" /><line class="minor" x1="175" y1="0" x2="175" y2="20" /><line class="minor" x1="176" y1="0" x2="176" y2="20" /><line class="minor" x1="177" y1="0" x2="177" y2="20" /><line class="minor" x1="178" y1="0" x2="178" y2="20" /><line class="minor" x1="179" y1="0" x2="179" y2="20" /><line class="minor" x1="181" y1="0" x2="181" y2="20" /><line class="minor" x1="182" y1="0" x2="182" y2="20" /><line class="minor" x1="183" y1="0" x2="183" y2="20" /><line class="minor" x1="184" y1="0" x2="184" y2="20" /><line class="minor" x1="185" y1="0" x2="185" y2="20" /><line class="minor" x1="186" y1="0" x2="186" y2="20" /><line class="minor" x1="187" y1="0" x2="187" y2="20" /><line class="minor" x1="188" y1="0" x2="188" y2="20" /><line class="minor" x1="189" y1="0" x2="189" y2="20" /><line class="minor" x1="191" y1="0" x2="191" y2="20" /><line class="minor" x1="192" y1="0" x2="192" y2="20" /><line class="minor" x1="193" y1="0" x2="193" y2="20" /><line class="minor" x1="194" y1="0" x2="194" y2="20" /><line class="minor" x1="195" y1="0" x2="195" y2="20" /><line class="minor" x1="196" y1="0" x2="196" y2="20" /><line class="minor" x1="197" y1="0" x2="197" y2="20" /><line class="minor" x1="198" y1="0" x2="198" y2="20" /><line class="minor" x1="199" y1="0" x2="199" y2="20" /><line class="minor" x1="201" y1="0" x2="201" y2="20" /><line class="minor" x1="202" y1="0" x2="202" y2="20" /><line class="minor" x1="203" y1="0" x2="203" y2="20" /><line class="minor" x1="204" y1="0" x2="204" y2="20" /><line class="minor" x1="205" y1="0" x2="205" y2="20" /><line class="minor" x1="206" y1="0" x2="206" y2="20" /><line class="minor" x1="207" y1="0" x2="207" y2="20" /><line class="minor" x1="208" y1="0" x2="208" y2="20" /><line class="minor" x1="209" y1="0" x2="209" y2="20" /><line class="minor" x1="211" y1="0" x2="211" y2="20" /><line class="minor" x1="212" y1="0" x2="212" y2="20" /><line class="minor" x1="213" y1="0" x2="213" y2="20" /><line class="minor" x1="214" y1="0" x2="214" y2="20" /><line class="minor" x1="215" y1="0" x2="215" y2="20" /><line class="minor" x1="216" y1="0" x2="216" y2="20" /><line class="minor" x1="217" y1="0" x2="217" y2="20" /><line class="minor" x1="218" y1="0" x2="218" y2="20" /><line class="minor" x1="219" y1="0" x2="219" y2="20" /><line class="minor" x1="221" y1="0" x2="221" y2="20" /><line class="minor" x1="222" y1="0" x2="222" y2="20" /><line class="minor" x1="223" y1="0" x2="223" y2="20" /><line class="minor" x1="224" y1="0" x2="224" y2="20" /><line class="minor" x1="225" y1="0" x2="225" y2="20" /><line class="minor" x1="226" y1="0" x2="226" y2="20" /><line class="minor" x1="227" y1="0" x2="227" y2="20" /><line class="minor" x1="228" y1="0" x2="228" y2="20" /><line class="minor" x1="229" y1="0" x2="229" y2="20" /><line class="minor" x1="231" y1="0" x2="231" y2="20" /><line class="minor" x1="232" y1="0" x2="232" y2="20" /><line class="minor" x1="233" y1="0" x2="233" y2="20" /><line class="minor" x1="234" y1="0" x2="234" y2="20" /><line class="minor" x1="235" y1="0" x2="235" y2="20" /><line class="minor" x1="236" y1="0" x2="236" y2="20" /><line class="minor" x1="237" y1="0" x2="237" y2="20" /><line class="minor" x1="238" y1="0" x2="238" y2="20" /><line class="minor" x1="239" y1="0" x2="239" y2="20" /><line class="minor" x1="241" y1="0" x2="241" y2="20" /><line class="minor" x1="242" y1="0" x2="242" y2="20" /><line class="minor" x1="243" y1="0" x2="243" y2="20" /><line class="minor" x1="244" y1="0" x2="244" y2="20" /><line class="minor" x1="245" y1="0" x2="245" y2="20" /><line class="minor" x1="246" y1="0" x2="246" y2="20" /><line class="minor" x1="247" y1="0" x2="247" y2="20" /><line class="minor" x1="248" y1="0" x2="248" y2="20" /><line class="minor" x1="249" y1="0" x2="249" y2="20" /><line class="minor" x1="251" y1="0" x2="251" y2="20" /><line class="minor" x1="252" y1="0" x2="252" y2="20" /><line class="minor" x1="253" y1="0" x2="253" y2="20" /><line class="minor" x1="254" y1="0" x2="254" y2="20" /><line class="minor" x1="255" y1="0" x2="255" y2="20" /><line class="minor" x1="256" y1="0" x2="256" y2="20" /><line class="minor" x1="257" y1="0" x2="257" y2="20" /><line class="minor" x1="258" y1="0" x2="258" y2="20" /><line class="minor" x1="259" y1="0" x2="259" y2="20" /><line class="minor" x1="0" y1="1" x2="260" y2="1" /><line class="minor" x1="0" y1="2" x2="260" y2="2" /><line class="minor" x1="0" y1="3" x2="260" y2="3" /><line class="minor" x1="0" y1="4" x2="260" y2="4" /><line class="minor" x1="0" y1="5" x2="260" y2="5" /><line class="minor" x1="0" y1="6" x2="260" y2="6" /><line class="minor" x1="0" y1="7" x2="260" y2="7" /><line class="minor" x1="0" y1="8" x2="260" y2="8" /><line class="minor" x1="0" y1="9" x2="260" y2="9" /><line class="minor" x1="0" y1="11" x2="260" y2="11" /><line class="minor" x1="0" y1="12" x2="260" y2="12" /><line class="minor" x1="0" y1="13" x2="260" y2="13" /><line class="minor" x1="0" y1="14" x2="260" y2="14" /><line class="minor" x1="0" y1="15" x2="260" y2="15" /><line class="minor" x1="0" y1="16" x2="260" y2="16" /><line class="minor" x1="0" y1="17" x2="260" y2="17" /><line class="minor" x1="0" y1="18" x2="260" y2="18" /><line class="minor" x1="0" y1="19" x2="260" y2="19" />
  <line class="major" x1="0" y1="0" x2="0" y2="20" /><line class="major" x1="10" y1="0" x2="10" y2="20" /><line class="major" x1="20" y1="0" x2="20" y2="20" /><line class="major" x1="30" y1="0" x2="30" y2="20" /><line class="major" x1="40" y1="0" x2="40" y2="20" /><line class="major" x1="50" y1="0" x2="50" y2="20" /><line class="major" x1="60" y1="0" x2="60" y2="20" /><line class="major" x1="70" y1="0" x2="70" y2="20" /><line class="major" x1="80" y1="0" x2="80" y2="20" /><line class="major" x1="90" y1="0" x2="90" y2="20" /><line class="major" x1="100" y1="0" x2="100" y2="20" /><line class="major" x1="110" y1="0" x2="110" y2="20" /><line class="major" x1="120" y1="0" x2="120" y2="20" /><line class="major" x1="130" y1="0" x2="130" y2="20" /><line class="major" x1="140" y1="0" x2="140" y2="20" /><line class="major" x1="150" y1="0" x2="150" y2="20" /><line class="major" x1="160" y1="0" x2="160" y2="20" /><line class="major" x1="170" y1="0" x2="170" y2="20" /><line class="major" x1="180" y1="0" x2="180" y2="20" /><line class="major" x1="190" y1="0" x2="190" y2="20" /><line class="major" x1="200" y1="0" x2="200" y2="20" /><line class="major" x1="210" y1="0" x2="210" y2="20" /><line class="major" x1="220" y1="0" x2="220" y2="20" /><line class="major" x1="230" y1="0" x2="230" y2="20" /><line class="major" x1="240" y1="0" x2="240" y2="20" /><line class="major" x1="250" y1="0" x2="250" y2="20" /><line class="major" x1="260" y1="0" x2="260" y2="20" /><line class="major" x1="0" y1="0" x2="260" y2="0" /><line class="major" x1="0" y1="10" x2="260" y2="10" /><line class="major" x1="0" y1="20" x2="260" y2="20" />
</svg>
