<svg width="22" height="22" viewBox="0 0 22 22" fill="none" xmlns="http://www.w3.org/2000/svg">
<path d="M4.12565 6.41536C2.86218 6.41536 1.83398 5.38717 1.83398 4.1237C1.83398 2.86023 2.86218 1.83203 4.12565 1.83203C5.38912 1.83203 6.41732 2.86023 6.41732 4.1237C6.41732 5.38717 5.38912 6.41536 4.12565 6.41536ZM4.12565 2.59592C3.28308 2.59592 2.59787 3.28113 2.59787 4.1237C2.59787 4.96627 3.28308 5.65148 4.12565 5.65148C4.96822 5.65148 5.65343 4.96627 5.65343 4.1237C5.65343 3.28113 4.96822 2.59592 4.12565 2.59592ZM6.03537 20.1654H2.21593C2.11463 20.1654 2.01748 20.1251 1.94585 20.0535C1.87422 19.9819 1.83398 19.8847 1.83398 19.7834V8.32509C1.83398 8.22379 1.87422 8.12664 1.94585 8.05501C2.01748 7.98338 2.11463 7.94314 2.21593 7.94314H6.03537C6.13667 7.94314 6.23382 7.98338 6.30545 8.05501C6.37708 8.12664 6.41732 8.22379 6.41732 8.32509V19.7834C6.41732 19.8847 6.37708 19.9819 6.30545 20.0535C6.23382 20.1251 6.13667 20.1654 6.03537 20.1654ZM2.59787 19.4015H5.65343V8.70703H2.59787V19.4015ZM19.7854 20.1654H15.9659C15.8646 20.1654 15.7675 20.1251 15.6959 20.0535C15.6242 19.9819 15.584 19.8847 15.584 19.7834V12.9084C15.584 12.0414 15.2227 11.3906 14.5917 11.124C13.9401 10.8474 13.1449 11.017 12.5284 11.5487V19.7834C12.5284 19.8847 12.4882 19.9819 12.4166 20.0535C12.3449 20.1251 12.2478 20.1654 12.1465 20.1654H8.32704C8.22574 20.1654 8.12859 20.1251 8.05696 20.0535C7.98534 19.9819 7.9451 19.8847 7.9451 19.7834V8.32509C7.9451 8.22379 7.98534 8.12664 8.05696 8.05501C8.12859 7.98338 8.22574 7.94314 8.32704 7.94314H12.1465C12.2311 7.94316 12.3134 7.97131 12.3803 8.02316C12.4472 8.07501 12.495 8.14763 12.5162 8.2296C13.7415 7.34807 15.7826 6.85766 17.415 7.41682C18.6472 7.83925 20.1238 9.00036 20.1673 12.1399V19.7842C20.1671 19.8853 20.1268 19.9823 20.0552 20.0538C19.9836 20.1252 19.8865 20.1654 19.7854 20.1654ZM16.3479 19.4015H19.4034V12.1445C19.3744 10.0171 18.6006 8.62988 17.1675 8.13946C15.3877 7.52988 13.1449 8.45036 12.4444 9.32731C12.3947 9.38852 12.3274 9.4329 12.2515 9.45438C12.1757 9.47585 12.095 9.47338 12.0206 9.4473C11.9462 9.42122 11.8817 9.37281 11.8359 9.30867C11.79 9.24453 11.7651 9.16781 11.7645 9.08897V8.70703H8.70898V19.4015H11.7645V11.3806C11.7645 11.3297 11.7748 11.2792 11.7946 11.2322C11.8144 11.1853 11.8434 11.1427 11.8799 11.1072C12.7339 10.2776 13.9172 10.0102 14.8888 10.4204C15.8162 10.8131 16.3479 11.7198 16.3471 12.9084L16.3479 19.4015Z" fill="#0A0A0A"/>
</svg>
