<?xml version="1.0" encoding="UTF-8"?>
<svg xmlns="http://www.w3.org/2000/svg" width="200" height="200" viewBox="0 0 200 200">
  <!-- background fill -->
  <rect width="200" height="200" fill="#3268de" />
  <defs>
    <style>
      .minor { stroke: #3d72e7; stroke-width: 1; }
      .major { stroke: #487ef3; stroke-width: 1; }
    </style>
  </defs>
  <!-- grid lines -->
  <line class="minor" x1="2" y1="0" x2="2" y2="200" /><line class="minor" x1="4" y1="0" x2="4" y2="200" /><line class="minor" x1="6" y1="0" x2="6" y2="200" /><line class="minor" x1="8" y1="0" x2="8" y2="200" /><line class="minor" x1="10" y1="0" x2="10" y2="200" /><line class="minor" x1="12" y1="0" x2="12" y2="200" /><line class="minor" x1="14" y1="0" x2="14" y2="200" /><line class="minor" x1="16" y1="0" x2="16" y2="200" /><line class="minor" x1="18" y1="0" x2="18" y2="200" /><line class="minor" x1="22" y1="0" x2="22" y2="200" /><line class="minor" x1="24" y1="0" x2="24" y2="200" /><line class="minor" x1="26" y1="0" x2="26" y2="200" /><line class="minor" x1="28" y1="0" x2="28" y2="200" /><line class="minor" x1="30" y1="0" x2="30" y2="200" /><line class="minor" x1="32" y1="0" x2="32" y2="200" /><line class="minor" x1="34" y1="0" x2="34" y2="200" /><line class="minor" x1="36" y1="0" x2="36" y2="200" /><line class="minor" x1="38" y1="0" x2="38" y2="200" /><line class="minor" x1="42" y1="0" x2="42" y2="200" /><line class="minor" x1="44" y1="0" x2="44" y2="200" /><line class="minor" x1="46" y1="0" x2="46" y2="200" /><line class="minor" x1="48" y1="0" x2="48" y2="200" /><line class="minor" x1="50" y1="0" x2="50" y2="200" /><line class="minor" x1="52" y1="0" x2="52" y2="200" /><line class="minor" x1="54" y1="0" x2="54" y2="200" /><line class="minor" x1="56" y1="0" x2="56" y2="200" /><line class="minor" x1="58" y1="0" x2="58" y2="200" /><line class="minor" x1="62" y1="0" x2="62" y2="200" /><line class="minor" x1="64" y1="0" x2="64" y2="200" /><line class="minor" x1="66" y1="0" x2="66" y2="200" /><line class="minor" x1="68" y1="0" x2="68" y2="200" /><line class="minor" x1="70" y1="0" x2="70" y2="200" /><line class="minor" x1="72" y1="0" x2="72" y2="200" /><line class="minor" x1="74" y1="0" x2="74" y2="200" /><line class="minor" x1="76" y1="0" x2="76" y2="200" /><line class="minor" x1="78" y1="0" x2="78" y2="200" /><line class="minor" x1="82" y1="0" x2="82" y2="200" /><line class="minor" x1="84" y1="0" x2="84" y2="200" /><line class="minor" x1="86" y1="0" x2="86" y2="200" /><line class="minor" x1="88" y1="0" x2="88" y2="200" /><line class="minor" x1="90" y1="0" x2="90" y2="200" /><line class="minor" x1="92" y1="0" x2="92" y2="200" /><line class="minor" x1="94" y1="0" x2="94" y2="200" /><line class="minor" x1="96" y1="0" x2="96" y2="200" /><line class="minor" x1="98" y1="0" x2="98" y2="200" /><line class="minor" x1="102" y1="0" x2="102" y2="200" /><line class="minor" x1="104" y1="0" x2="104" y2="200" /><line class="minor" x1="106" y1="0" x2="106" y2="200" /><line class="minor" x1="108" y1="0" x2="108" y2="200" /><line class="minor" x1="110" y1="0" x2="110" y2="200" /><line class="minor" x1="112" y1="0" x2="112" y2="200" /><line class="minor" x1="114" y1="0" x2="114" y2="200" /><line class="minor" x1="116" y1="0" x2="116" y2="200" /><line class="minor" x1="118" y1="0" x2="118" y2="200" /><line class="minor" x1="122" y1="0" x2="122" y2="200" /><line class="minor" x1="124" y1="0" x2="124" y2="200" /><line class="minor" x1="126" y1="0" x2="126" y2="200" /><line class="minor" x1="128" y1="0" x2="128" y2="200" /><line class="minor" x1="130" y1="0" x2="130" y2="200" /><line class="minor" x1="132" y1="0" x2="132" y2="200" /><line class="minor" x1="134" y1="0" x2="134" y2="200" /><line class="minor" x1="136" y1="0" x2="136" y2="200" /><line class="minor" x1="138" y1="0" x2="138" y2="200" /><line class="minor" x1="142" y1="0" x2="142" y2="200" /><line class="minor" x1="144" y1="0" x2="144" y2="200" /><line class="minor" x1="146" y1="0" x2="146" y2="200" /><line class="minor" x1="148" y1="0" x2="148" y2="200" /><line class="minor" x1="150" y1="0" x2="150" y2="200" /><line class="minor" x1="152" y1="0" x2="152" y2="200" /><line class="minor" x1="154" y1="0" x2="154" y2="200" /><line class="minor" x1="156" y1="0" x2="156" y2="200" /><line class="minor" x1="158" y1="0" x2="158" y2="200" /><line class="minor" x1="162" y1="0" x2="162" y2="200" /><line class="minor" x1="164" y1="0" x2="164" y2="200" /><line class="minor" x1="166" y1="0" x2="166" y2="200" /><line class="minor" x1="168" y1="0" x2="168" y2="200" /><line class="minor" x1="170" y1="0" x2="170" y2="200" /><line class="minor" x1="172" y1="0" x2="172" y2="200" /><line class="minor" x1="174" y1="0" x2="174" y2="200" /><line class="minor" x1="176" y1="0" x2="176" y2="200" /><line class="minor" x1="178" y1="0" x2="178" y2="200" /><line class="minor" x1="182" y1="0" x2="182" y2="200" /><line class="minor" x1="184" y1="0" x2="184" y2="200" /><line class="minor" x1="186" y1="0" x2="186" y2="200" /><line class="minor" x1="188" y1="0" x2="188" y2="200" /><line class="minor" x1="190" y1="0" x2="190" y2="200" /><line class="minor" x1="192" y1="0" x2="192" y2="200" /><line class="minor" x1="194" y1="0" x2="194" y2="200" /><line class="minor" x1="196" y1="0" x2="196" y2="200" /><line class="minor" x1="198" y1="0" x2="198" y2="200" /><line class="minor" x1="0" y1="2" x2="200" y2="2" /><line class="minor" x1="0" y1="4" x2="200" y2="4" /><line class="minor" x1="0" y1="6" x2="200" y2="6" /><line class="minor" x1="0" y1="8" x2="200" y2="8" /><line class="minor" x1="0" y1="10" x2="200" y2="10" /><line class="minor" x1="0" y1="12" x2="200" y2="12" /><line class="minor" x1="0" y1="14" x2="200" y2="14" /><line class="minor" x1="0" y1="16" x2="200" y2="16" /><line class="minor" x1="0" y1="18" x2="200" y2="18" /><line class="minor" x1="0" y1="22" x2="200" y2="22" /><line class="minor" x1="0" y1="24" x2="200" y2="24" /><line class="minor" x1="0" y1="26" x2="200" y2="26" /><line class="minor" x1="0" y1="28" x2="200" y2="28" /><line class="minor" x1="0" y1="30" x2="200" y2="30" /><line class="minor" x1="0" y1="32" x2="200" y2="32" /><line class="minor" x1="0" y1="34" x2="200" y2="34" /><line class="minor" x1="0" y1="36" x2="200" y2="36" /><line class="minor" x1="0" y1="38" x2="200" y2="38" /><line class="minor" x1="0" y1="42" x2="200" y2="42" /><line class="minor" x1="0" y1="44" x2="200" y2="44" /><line class="minor" x1="0" y1="46" x2="200" y2="46" /><line class="minor" x1="0" y1="48" x2="200" y2="48" /><line class="minor" x1="0" y1="50" x2="200" y2="50" /><line class="minor" x1="0" y1="52" x2="200" y2="52" /><line class="minor" x1="0" y1="54" x2="200" y2="54" /><line class="minor" x1="0" y1="56" x2="200" y2="56" /><line class="minor" x1="0" y1="58" x2="200" y2="58" /><line class="minor" x1="0" y1="62" x2="200" y2="62" /><line class="minor" x1="0" y1="64" x2="200" y2="64" /><line class="minor" x1="0" y1="66" x2="200" y2="66" /><line class="minor" x1="0" y1="68" x2="200" y2="68" /><line class="minor" x1="0" y1="70" x2="200" y2="70" /><line class="minor" x1="0" y1="72" x2="200" y2="72" /><line class="minor" x1="0" y1="74" x2="200" y2="74" /><line class="minor" x1="0" y1="76" x2="200" y2="76" /><line class="minor" x1="0" y1="78" x2="200" y2="78" /><line class="minor" x1="0" y1="82" x2="200" y2="82" /><line class="minor" x1="0" y1="84" x2="200" y2="84" /><line class="minor" x1="0" y1="86" x2="200" y2="86" /><line class="minor" x1="0" y1="88" x2="200" y2="88" /><line class="minor" x1="0" y1="90" x2="200" y2="90" /><line class="minor" x1="0" y1="92" x2="200" y2="92" /><line class="minor" x1="0" y1="94" x2="200" y2="94" /><line class="minor" x1="0" y1="96" x2="200" y2="96" /><line class="minor" x1="0" y1="98" x2="200" y2="98" /><line class="minor" x1="0" y1="102" x2="200" y2="102" /><line class="minor" x1="0" y1="104" x2="200" y2="104" /><line class="minor" x1="0" y1="106" x2="200" y2="106" /><line class="minor" x1="0" y1="108" x2="200" y2="108" /><line class="minor" x1="0" y1="110" x2="200" y2="110" /><line class="minor" x1="0" y1="112" x2="200" y2="112" /><line class="minor" x1="0" y1="114" x2="200" y2="114" /><line class="minor" x1="0" y1="116" x2="200" y2="116" /><line class="minor" x1="0" y1="118" x2="200" y2="118" /><line class="minor" x1="0" y1="122" x2="200" y2="122" /><line class="minor" x1="0" y1="124" x2="200" y2="124" /><line class="minor" x1="0" y1="126" x2="200" y2="126" /><line class="minor" x1="0" y1="128" x2="200" y2="128" /><line class="minor" x1="0" y1="130" x2="200" y2="130" /><line class="minor" x1="0" y1="132" x2="200" y2="132" /><line class="minor" x1="0" y1="134" x2="200" y2="134" /><line class="minor" x1="0" y1="136" x2="200" y2="136" /><line class="minor" x1="0" y1="138" x2="200" y2="138" /><line class="minor" x1="0" y1="142" x2="200" y2="142" /><line class="minor" x1="0" y1="144" x2="200" y2="144" /><line class="minor" x1="0" y1="146" x2="200" y2="146" /><line class="minor" x1="0" y1="148" x2="200" y2="148" /><line class="minor" x1="0" y1="150" x2="200" y2="150" /><line class="minor" x1="0" y1="152" x2="200" y2="152" /><line class="minor" x1="0" y1="154" x2="200" y2="154" /><line class="minor" x1="0" y1="156" x2="200" y2="156" /><line class="minor" x1="0" y1="158" x2="200" y2="158" /><line class="minor" x1="0" y1="162" x2="200" y2="162" /><line class="minor" x1="0" y1="164" x2="200" y2="164" /><line class="minor" x1="0" y1="166" x2="200" y2="166" /><line class="minor" x1="0" y1="168" x2="200" y2="168" /><line class="minor" x1="0" y1="170" x2="200" y2="170" /><line class="minor" x1="0" y1="172" x2="200" y2="172" /><line class="minor" x1="0" y1="174" x2="200" y2="174" /><line class="minor" x1="0" y1="176" x2="200" y2="176" /><line class="minor" x1="0" y1="178" x2="200" y2="178" /><line class="minor" x1="0" y1="182" x2="200" y2="182" /><line class="minor" x1="0" y1="184" x2="200" y2="184" /><line class="minor" x1="0" y1="186" x2="200" y2="186" /><line class="minor" x1="0" y1="188" x2="200" y2="188" /><line class="minor" x1="0" y1="190" x2="200" y2="190" /><line class="minor" x1="0" y1="192" x2="200" y2="192" /><line class="minor" x1="0" y1="194" x2="200" y2="194" /><line class="minor" x1="0" y1="196" x2="200" y2="196" /><line class="minor" x1="0" y1="198" x2="200" y2="198" /><line class="major" x1="0" y1="0" x2="0" y2="200" /><line class="major" x1="0" y1="0" x2="200" y2="0" /><line class="major" x1="20" y1="0" x2="20" y2="200" /><line class="major" x1="0" y1="20" x2="200" y2="20" /><line class="major" x1="40" y1="0" x2="40" y2="200" /><line class="major" x1="0" y1="40" x2="200" y2="40" /><line class="major" x1="60" y1="0" x2="60" y2="200" /><line class="major" x1="0" y1="60" x2="200" y2="60" /><line class="major" x1="80" y1="0" x2="80" y2="200" /><line class="major" x1="0" y1="80" x2="200" y2="80" /><line class="major" x1="100" y1="0" x2="100" y2="200" /><line class="major" x1="0" y1="100" x2="200" y2="100" /><line class="major" x1="120" y1="0" x2="120" y2="200" /><line class="major" x1="0" y1="120" x2="200" y2="120" /><line class="major" x1="140" y1="0" x2="140" y2="200" /><line class="major" x1="0" y1="140" x2="200" y2="140" /><line class="major" x1="160" y1="0" x2="160" y2="200" /><line class="major" x1="0" y1="160" x2="200" y2="160" /><line class="major" x1="180" y1="0" x2="180" y2="200" /><line class="major" x1="0" y1="180" x2="200" y2="180" /><line class="major" x1="200" y1="0" x2="200" y2="200" /><line class="major" x1="0" y1="200" x2="200" y2="200" />
</svg>
